<svg xmlns="http://www.w3.org/2000/svg" viewBox="0 0 200 200" fill="none">
  <!-- Saucer -->
  <ellipse cx="100" cy="155" rx="55" ry="10" fill="#EDD5B3" stroke="#C8813A" stroke-width="2"/>
  <!-- Cup body -->
  <path d="M70 120 Q68 150 82 155 Q100 160 118 155 Q132 150 130 120 Z" fill="#fff" stroke="#C8813A" stroke-width="2.5"/>
  <!-- Cup top ellipse -->
  <ellipse cx="100" cy="120" rx="30" ry="8" fill="#3D2B1F" stroke="#C8813A" stroke-width="2"/>
  <!-- Handle -->
  <path d="M130 128 Q148 128 148 138 Q148 148 130 148" stroke="#C8813A" stroke-width="2.5" fill="none" stroke-linecap="round"/>
  <!-- Steam lines -->
  <path d="M90 108 Q87 98 90 90 Q93 82 90 74" stroke="#C8813A" stroke-width="2" fill="none" stroke-linecap="round"/>
  <path d="M100 106 Q97 96 100 88 Q103 80 100 72" stroke="#C8813A" stroke-width="2" fill="none" stroke-linecap="round"/>
  <path d="M110 108 Q107 98 110 90 Q113 82 110 74" stroke="#C8813A" stroke-width="2" fill="none" stroke-linecap="round"/>
</svg>
